<mxfile host="65bd71144e">
    <diagram id="4p9DZrHhh98LCNwYaWTW" name="Page-1">
        <mxGraphModel dx="1164" dy="849" grid="1" gridSize="10" guides="1" tooltips="1" connect="1" arrows="1" fold="1" page="1" pageScale="1" pageWidth="850" pageHeight="1100" math="0" shadow="0">
            <root>
                <mxCell id="0"/>
                <mxCell id="1" parent="0"/>
                <mxCell id="10" value="" style="edgeStyle=none;html=1;" parent="1" source="8" target="5" edge="1">
                    <mxGeometry relative="1" as="geometry"/>
                </mxCell>
                <mxCell id="40" style="edgeStyle=none;html=1;entryX=0.5;entryY=0;entryDx=0;entryDy=0;" edge="1" parent="1" source="8" target="39">
                    <mxGeometry relative="1" as="geometry"/>
                </mxCell>
                <mxCell id="8" value="" style="rounded=1;whiteSpace=wrap;html=1;glass=0;sketch=1;curveFitting=1;jiggle=2;movable=1;resizable=1;rotatable=1;deletable=1;editable=1;connectable=1;locked=0;" parent="1" vertex="1">
                    <mxGeometry x="240" y="420" width="280" height="340" as="geometry"/>
                </mxCell>
                <mxCell id="6" value="" style="edgeStyle=none;html=1;movable=1;resizable=1;rotatable=1;deletable=1;editable=1;connectable=1;entryX=0.5;entryY=0;entryDx=0;entryDy=0;" parent="1" source="2" target="11" edge="1">
                    <mxGeometry relative="1" as="geometry">
                        <mxPoint x="380" y="220" as="targetPoint"/>
                    </mxGeometry>
                </mxCell>
                <mxCell id="23" value="" style="edgeStyle=none;html=1;" parent="1" source="2" target="22" edge="1">
                    <mxGeometry relative="1" as="geometry"/>
                </mxCell>
                <mxCell id="2" value="Scene loaded into SceneManager" style="rounded=1;whiteSpace=wrap;html=1;" parent="1" vertex="1">
                    <mxGeometry x="300" y="130" width="160" height="60" as="geometry"/>
                </mxCell>
                <mxCell id="4" style="edgeStyle=none;html=1;entryX=0.5;entryY=0;entryDx=0;entryDy=0;" parent="1" source="3" target="2" edge="1">
                    <mxGeometry relative="1" as="geometry"/>
                </mxCell>
                <mxCell id="3" value="&lt;span style=&quot;color: rgb(240, 240, 240); font-family: Helvetica; font-size: 12px; font-style: normal; font-variant-ligatures: normal; font-variant-caps: normal; font-weight: 400; letter-spacing: normal; orphans: 2; text-align: center; text-indent: 0px; text-transform: none; widows: 2; word-spacing: 0px; -webkit-text-stroke-width: 0px; background-color: rgb(42, 37, 47); text-decoration-thickness: initial; text-decoration-style: initial; text-decoration-color: initial; float: none; display: inline !important;&quot;&gt;Scene Construction&lt;/span&gt;" style="shape=parallelogram;perimeter=parallelogramPerimeter;whiteSpace=wrap;html=1;fixedSize=1;" parent="1" vertex="1">
                    <mxGeometry x="290" y="10" width="180" height="60" as="geometry"/>
                </mxCell>
                <mxCell id="7" value="On Frame" style="edgeStyle=none;html=1;movable=1;resizable=1;rotatable=1;deletable=1;editable=1;connectable=1;" parent="1" source="5" edge="1">
                    <mxGeometry relative="1" as="geometry">
                        <mxPoint x="380" y="420" as="targetPoint"/>
                    </mxGeometry>
                </mxCell>
                <mxCell id="5" value="Scene Manager Starting frame thread" style="whiteSpace=wrap;html=1;rounded=1;movable=1;resizable=1;rotatable=1;deletable=1;editable=1;connectable=1;" parent="1" vertex="1">
                    <mxGeometry x="320" y="320" width="120" height="60" as="geometry"/>
                </mxCell>
                <mxCell id="28" value="" style="edgeStyle=none;html=1;" parent="1" source="9" target="27" edge="1">
                    <mxGeometry relative="1" as="geometry"/>
                </mxCell>
                <mxCell id="9" value="Call Scene Frame_update" style="rounded=1;whiteSpace=wrap;html=1;glass=0;movable=1;resizable=1;rotatable=1;deletable=1;editable=1;connectable=1;" parent="1" vertex="1">
                    <mxGeometry x="320" y="440" width="120" height="60" as="geometry"/>
                </mxCell>
                <mxCell id="12" style="edgeStyle=none;html=1;" parent="1" target="5" edge="1">
                    <mxGeometry relative="1" as="geometry">
                        <mxPoint x="380" y="240" as="sourcePoint"/>
                    </mxGeometry>
                </mxCell>
                <mxCell id="11" value="Calling Scene Start()" style="rounded=1;whiteSpace=wrap;html=1;glass=0;" parent="1" vertex="1">
                    <mxGeometry x="320" y="230" width="120" height="60" as="geometry"/>
                </mxCell>
                <mxCell id="15" value="" style="endArrow=none;dashed=1;html=1;dashPattern=1 3;strokeWidth=2;" parent="1" edge="1">
                    <mxGeometry width="50" height="50" relative="1" as="geometry">
                        <mxPoint x="440" y="480" as="sourcePoint"/>
                        <mxPoint x="600" y="400" as="targetPoint"/>
                        <Array as="points">
                            <mxPoint x="600" y="480"/>
                        </Array>
                    </mxGeometry>
                </mxCell>
                <mxCell id="16" value="For logical" style="rounded=1;whiteSpace=wrap;html=1;glass=0;dashed=1;dashPattern=8 8;" parent="1" vertex="1">
                    <mxGeometry x="540" y="340" width="120" height="60" as="geometry"/>
                </mxCell>
                <mxCell id="19" value="Loading Assets To Scene" style="edgeStyle=none;html=1;entryX=0;entryY=0.5;entryDx=0;entryDy=0;" parent="1" source="17" target="3" edge="1">
                    <mxGeometry relative="1" as="geometry"/>
                </mxCell>
                <mxCell id="17" value="AssetsCache" style="shape=cylinder3;whiteSpace=wrap;html=1;boundedLbl=1;backgroundOutline=1;size=15;rounded=0;glass=0;sketch=1;strokeColor=#78C0F0;fillColor=none;" parent="1" vertex="1">
                    <mxGeometry x="60" width="80" height="100" as="geometry"/>
                </mxCell>
                <mxCell id="25" value="yes&lt;br&gt;" style="edgeStyle=none;html=1;" parent="1" source="22" target="24" edge="1">
                    <mxGeometry relative="1" as="geometry"/>
                </mxCell>
                <mxCell id="22" value="Move Current scene to buffer" style="rhombus;whiteSpace=wrap;html=1;rounded=1;" parent="1" vertex="1">
                    <mxGeometry x="520" y="120" width="200" height="80" as="geometry"/>
                </mxCell>
                <mxCell id="26" style="edgeStyle=none;html=1;entryX=1;entryY=0.5;entryDx=0;entryDy=0;" parent="1" source="24" target="11" edge="1">
                    <mxGeometry relative="1" as="geometry"/>
                </mxCell>
                <mxCell id="24" value="Current scene saved in scene buffer and can called back" style="whiteSpace=wrap;html=1;rounded=1;" parent="1" vertex="1">
                    <mxGeometry x="560" y="230" width="120" height="60" as="geometry"/>
                </mxCell>
                <mxCell id="30" value="" style="edgeStyle=none;html=1;" parent="1" source="27" target="29" edge="1">
                    <mxGeometry relative="1" as="geometry"/>
                </mxCell>
                <mxCell id="27" value="Call scene&amp;nbsp;&lt;br&gt;&lt;span style=&quot;color: rgb(54, 249, 246); background-color: rgb(38, 35, 53); font-family: Consolas, &amp;quot;Courier New&amp;quot;, monospace; font-size: 14px;&quot;&gt;Graphical_update&lt;/span&gt;" style="whiteSpace=wrap;html=1;rounded=1;glass=0;verticalAlign=top;" parent="1" vertex="1">
                    <mxGeometry x="280" y="520" width="200" height="130" as="geometry"/>
                </mxCell>
                <mxCell id="29" value="Call Scene&lt;br&gt;&lt;div style=&quot;color: rgb(187, 187, 187); background-color: rgb(38, 35, 53); font-family: &amp;quot;Fira Code&amp;quot;, Monaco, Consolas, &amp;quot;Courier New&amp;quot;, monospace; font-size: 14px; line-height: 19px; white-space: pre;&quot;&gt;&lt;span style=&quot;color: #36f9f6;&quot;&gt;Render_objects&lt;/span&gt;&lt;/div&gt;" style="whiteSpace=wrap;html=1;rounded=1;glass=0;" parent="1" vertex="1">
                    <mxGeometry x="320" y="680" width="120" height="60" as="geometry"/>
                </mxCell>
                <mxCell id="35" value="Animations()" style="rounded=1;whiteSpace=wrap;html=1;fillColor=#dae8fc;strokeColor=#6c8ebf;" vertex="1" parent="1">
                    <mxGeometry x="320" y="570" width="120" height="60" as="geometry"/>
                </mxCell>
                <mxCell id="41" value="YES" style="edgeStyle=none;html=1;" edge="1" parent="1" source="39">
                    <mxGeometry relative="1" as="geometry">
                        <mxPoint x="380" y="960" as="targetPoint"/>
                    </mxGeometry>
                </mxCell>
                <mxCell id="39" value="Is New Frame Loaded?" style="rhombus;whiteSpace=wrap;html=1;" vertex="1" parent="1">
                    <mxGeometry x="260" y="790" width="240" height="100" as="geometry"/>
                </mxCell>
                <mxCell id="43" value="NO" style="edgeStyle=none;html=1;entryX=0;entryY=0.5;entryDx=0;entryDy=0;exitX=0;exitY=0.5;exitDx=0;exitDy=0;" edge="1" parent="1" source="39" target="5">
                    <mxGeometry relative="1" as="geometry">
                        <Array as="points">
                            <mxPoint x="170" y="840"/>
                            <mxPoint x="170" y="350"/>
                        </Array>
                    </mxGeometry>
                </mxCell>
                <mxCell id="42" value="Destructor" style="shape=parallelogram;perimeter=parallelogramPerimeter;whiteSpace=wrap;html=1;fixedSize=1;" vertex="1" parent="1">
                    <mxGeometry x="320" y="960" width="120" height="60" as="geometry"/>
                </mxCell>
            </root>
        </mxGraphModel>
    </diagram>
</mxfile>